<svg xmlns="http://www.w3.org/2000/svg" version="1.1" xmlns:xlink="http://www.w3.org/1999/xlink" xmlns:svgjs="http://svgjs.dev/svgjs" width="100%" height="100%" viewBox="0 0 1000 600"><rect width="1000" height="600" x="0" y="0" fill="white"/><g><rect width="333.3333333333333" height="333.3333333333333" rx="13.333333333333334" ry="13.333333333333334" y="181.55735673159361" fill="#8000ff" transform="matrix(0.7845100132283915,0,0,0.7845100132283915,0,26.814772256142504)" x="159.3351287841797"/><path d="M358.24065790923265 324.63819979485964L358.24065790923265 324.63819979485964Q358.24065790923265 314.3469645828208 354.88025457468933 305.10585541282677Q351.56185628182783 295.9067512845145 345.2190949878774 291.66424207465354L345.2190949878774 291.66424207465354Q324.3425892720271 297.4189327850589 309.38879443330944 323.8821090445874Q294.39299455290995 350.3452853041159 294.39299455290995 373.6160783958282Q294.39299455290995 396.92887652922235 305.9023759737208 402.641562197946L305.9023759737208 402.641562197946Q327.6609875648886 398.44105802976685 342.9508227370606 372.859987645556Q358.24065790923265 347.3209223030269 358.24065790923265 324.63819979485964ZM278.8511291306472 327.3685275041761Q289.26837946773145 303.76169407900943 306.3644314322205 288.47185890683744Q323.4604833967095 273.2240287763472 341.43864123651616 273.2240287763472Q359.4167990763228 273.2240287763472 371.51425108067866 288.47185890683744Q383.6117030850345 303.76169407900943 383.6117030850345 325.6883258369044Q383.6117030850345 347.6149575947995 373.02643258122316 370.4657002696939Q362.4411620774118 393.27443790290647 343.87493365406004 408.27023778330596Q325.26670018902655 423.2240326220236 304.3901944731763 423.2240326220236L304.3901944731763 423.2240326220236Q288.9743441759589 423.2240326220236 278.68310896392006 409.0263285335782Q268.39187375188123 394.78661940345097 268.39187375188123 372.859987645556Q268.39187375188123 350.933355887661 278.8511291306472 327.3685275041761Z " fill="#ffe8f5" transform="matrix(0.7845100132283915,0,0,0.7845100132283915,0,26.814772256142504)"/><path d="M586.3473166013632 282.4155469372894L586.3473166013632 282.4155469372894Q600.0536204236603 282.4155469372894 615.5820325827472 289.5622607471429Q631.1104447418339 296.6887289088099 642.3265338371848 309.3017677290329Q653.5426229325357 321.914806549256 653.5426229325357 335.4793908342471L653.5426229325357 335.4793908342471Q653.5426229325357 344.3672303881443 641.233268835111 356.3931454109573Q628.9239147376861 368.4190604337703 612.727396188443 376.94247832030953Q596.5511232873864 385.4658962068487 585.9221579894456 385.4658962068487L585.9221579894456 385.4658962068487Q583.1485041878877 385.4658962068487 579.5650244588678 380.7284145311951Q576.0017903780342 375.9909328555415 576.0017903780342 371.11173164258196Q576.0017903780342 366.2325304296225 584.4644713200138 335.90454944616476Q592.9069066138068 305.5968141108936 593.6357499485227 295.95988557409396L593.6357499485227 295.95988557409396Q588.9792508656153 294.0770402927444 586.2055970640574 291.0199474165748Q583.4319432624995 287.9426088922186 583.4319432624995 285.18920073884726Q583.4319432624995 282.4155469372894 586.3473166013632 282.4155469372894ZM640.140003833037 333.8597389793228L640.140003833037 333.8597389793228Q640.140003833037 324.8301798881198 629.3490733496037 314.26195153473867Q618.5581428661706 303.69372318135754 604.2849608946501 299.0372240984501L604.2849608946501 299.0372240984501Q605.013804229366 301.6489127145156 605.013804229366 305.2323924435356Q605.013804229366 308.7956265243691 602.4628525578602 318.55402895028806Q599.9119008863544 328.3326770243936 593.210591336605 351.2102594751995L593.210591336605 351.2102594751995Q590.4369375350472 360.8269423638126 588.6755661428169 372.34671618196177L588.6755661428169 372.34671618196177Q598.7376532915343 371.0307490498358 611.2089725744515 363.5398592208108Q623.6600462091822 356.02872374359936 631.9000250211095 347.4243232643139Q640.140003833037 338.81992278502855 640.140003833037 333.8597389793228ZM671.6219867631283 330.80264610315317L671.6219867631283 330.80264610315317L671.1968281512106 319.8699960824141Q671.1968281512106 313.02696699535886 674.3956405646862 313.02696699535886L674.3956405646862 313.02696699535886Q677.1692943662441 313.02696699535886 679.7202460377499 316.59020107619233Q682.2711977092557 320.17368080521237 682.2711977092557 325.0528820181719Q682.2711977092557 329.93208323113134 681.9675129864573 332.4020523098909L681.9675129864573 332.4020523098909Q694.6615343994266 313.16868653266476 706.0193430320834 313.16868653266476L706.0193430320834 313.16868653266476Q713.1660568419369 313.16868653266476 713.1660568419369 316.67118366893857L713.1660568419369 316.67118366893857Q713.1660568419369 318.4123094129822 711.5666506351992 319.8699960824141Q709.9672444284614 321.32768275184594 706.4647472921876 323.230773681382L706.4647472921876 323.230773681382Q698.7309096849241 326.57130563216344 693.4265498600467 333.49531731196487Q688.1019443869833 340.4193289917663 684.7411667880152 349.16544900835754Q681.400634837234 357.91156902494885 679.4165613149515 363.90428088816884Q677.4527334408559 369.8767471032022 676.4404510315281 373.2172790539836Q675.4079229740138 376.57805665295155 674.1122014900744 379.776869066427L674.1122014900744 379.776869066427Q671.7637063004341 385.6076157441546 668.7066134242646 385.6076157441546L668.7066134242646 385.6076157441546Q666.2366443455049 385.6076157441546 664.6979750833268 382.773224998037Q663.1795514693354 379.9388342519195 663.1795514693354 377.2259173949212Q663.1795514693354 374.53324618610964 665.6495205480949 366.51596950423425L665.6495205480949 366.51596950423425Q671.6219867631283 348.1531665990299 671.6219867631283 330.80264610315317ZM769.2869936150643 337.1395339855445Q769.2869936150643 344.9543541855544 760.9052952658311 349.83355539851385Q752.5235969165977 354.7127566114733 741.9553685632167 354.7127566114733Q731.3871402098354 354.7127566114733 722.7827397305501 352.38450707001965L722.7827397305501 352.38450707001965Q720.7581749118946 358.80237754515724 720.7581749118946 363.82329829542255Q720.7581749118946 368.84421904568796 723.876004732624 371.61787284724585Q727.0140802015397 374.39152664880373 734.2417766041395 374.39152664880373Q741.4492273585528 374.39152664880373 749.1020823730702 371.84057497729793Q756.7549373875873 369.28962330579213 757.4837807223033 369.28962330579213L757.4837807223033 369.28962330579213Q761.269716933189 369.28962330579213 761.269716933189 372.2049966446559L761.269716933189 372.2049966446559Q761.269716933189 376.1326523928474 752.3818773792917 380.7284145311951Q743.4940378253947 385.3241766695428 735.031356883415 385.3241766695428L735.031356883415 385.3241766695428Q723.6735482507585 385.3241766695428 716.526834440905 378.5418845270473Q709.3801206310512 371.7595923845517 709.3801206310512 361.41406616122265Q709.3801206310512 351.06853993789366 714.927428234167 339.77146824979656Q720.4544901890964 328.47439656169945 729.2006102056877 320.74055895443587Q737.9467302222789 313.02696699535886 746.5511307015644 313.02696699535886Q755.1555311808496 313.02696699535886 762.221262397957 321.1859632145401Q769.2869936150643 329.34495943372133 769.2869936150643 337.1395339855445ZM747.2799740362801 324.546740813508L747.2799740362801 324.546740813508Q741.894631618657 324.546740813508 736.0638849409294 330.1547853611835Q730.2331382632018 335.76282990885886 726.143517329518 344.063545665346L726.143517329518 344.063545665346Q731.9742640072456 345.379512797472 739.4044168917106 345.379512797472Q746.834569776176 345.379512797472 752.3818773792917 342.9702806632721Q757.9291849824075 340.5812941772587 757.9291849824075 336.6333927808807Q757.9291849824075 332.7057370326892 754.3457052533876 328.61611609900535Q750.782471172554 324.546740813508 747.2799740362801 324.546740813508ZM815.5078084249668 313.02696699535886Q822.0673984374104 313.02696699535886 827.5944603923396 319.64729395236196Q833.1417679954553 326.28786655755164 833.1417679954553 331.6124720306153Q833.1417679954553 336.937077503679 829.4975513218757 342.4641394586082L829.4975513218757 342.4641394586082Q831.2386770659192 344.650669462756 831.2386770659192 346.2500756694938L831.2386770659192 346.2500756694938Q831.2386770659192 350.3396966031777 829.4165687291294 360.2600642145891Q827.5944603923396 370.16018617781396 827.2300387249815 373.2172790539836Q826.8656170576236 376.2946175783398 826.5821779830118 378.1167259151296Q826.2784932602134 379.9388342519195 825.8533346482958 381.67995999596315L825.8533346482958 381.67995999596315Q825.2662108508858 385.3241766695428 823.2214003840439 385.3241766695428L823.2214003840439 385.3241766695428Q820.6097117679784 385.3241766695428 818.9293229684944 380.7284145311951Q817.2489341690106 376.1326523928474 816.9654950943988 368.84421904568796L816.9654950943988 368.84421904568796Q803.9880346068177 385.3241766695428 792.9136650487727 385.3241766695428L792.9136650487727 385.3241766695428Q786.1921098508368 385.3241766695428 779.7135024311395 379.5744125845615Q773.2348950114423 373.80440285139366 773.2348950114423 367.6902170990544L773.2348950114423 367.6902170990544Q773.2348950114423 358.9440970824631 779.6325198383933 346.04761918762824Q786.050390313531 333.1308956446069 796.254196999554 323.08905414407616Q806.4580036855772 313.02696699535886 815.5078084249668 313.02696699535886L815.5078084249668 313.02696699535886ZM822.2091179747162 338.81992278502855L822.2091179747162 338.67820324772265Q822.2091179747162 325.11361896273155 816.8035299089064 325.11361896273155L816.8035299089064 325.11361896273155Q811.1347484166712 325.11361896273155 803.5426303467135 333.21187823735306Q795.9707579249424 341.31013751197463 790.7271350446248 351.51394419799783Q785.4632665161208 361.717750884021 785.4632665161208 367.6902170990544L785.4632665161208 367.6902170990544Q785.4632665161208 370.16018617781396 787.5080769829627 371.69885543999203Q789.5528874498046 373.2172790539836 792.3265412513628 373.2172790539836L792.3265412513628 373.2172790539836Q799.1695703384179 373.2172790539836 807.7739708177033 363.96501783272845Q816.3783712969886 354.7127566114733 819.7189032477701 341.45185704928053L819.7189032477701 341.45185704928053Q820.1643075078742 339.2653270451327 822.2091179747162 338.81992278502855L822.2091179747162 338.81992278502855ZM939.4111753266767 313.02696699535886L939.4111753266767 313.02696699535886Q943.7842353349723 313.02696699535886 947.2057498784999 319.08041580313846Q950.6272644220277 325.11361896273155 950.6272644220277 332.7664739772489Q950.6272644220277 340.4193289917663 947.9345932132159 352.6679461446314Q945.2419220044043 364.9165632974965 940.7068968106163 375.12036998351965Q936.1921172650146 385.3241766695428 931.819057256719 385.3241766695428L931.819057256719 385.3241766695428Q928.7619643805493 385.3241766695428 928.7619643805493 381.31553832860516Q928.7619643805493 377.30689998766746 933.7828851308146 361.63676829127473Q938.8240515292667 345.96663659488206 938.8240515292667 336.7143753736269Q938.8240515292667 327.4621141523718 935.9086781904028 327.4621141523718L935.9086781904028 327.4621141523718Q932.2644615168232 327.4621141523718 927.5269798411695 333.8597389793228Q922.789498165516 340.2776094544604 917.383910099706 349.32741419385Q911.9985676820828 358.356973285053 911.5531634219786 359.00483402702275Q911.1280048100608 359.672940417179 910.4598984199046 360.8269423638126Q909.8120376779349 362.0011899586327 909.0022117504728 363.3171570907587Q908.2126314711971 364.6331242228847 904.9328364649754 371.1927142353282Q901.6530414587538 377.7523042477717 899.1628267318075 381.457257865911Q896.692857653048 385.18245713223695 894.8707493162582 385.18245713223695Q893.0486409794684 385.18245713223695 890.8621109753204 382.85420759078323Q888.6755809711727 380.505712401143 888.6755809711727 378.4811475824876Q888.6755809711727 376.43633711564564 891.3075152354246 370.01846664050805L891.3075152354246 370.01846664050805Q898.8793876571959 351.06853993789366 898.8793876571959 334.7505474995312L898.8793876571959 334.7505474995312Q898.8793876571959 331.673208975175 897.5634205250698 329.5676615637734Q896.2474533929438 327.4621141523718 894.6480471862061 327.4621141523718Q893.0486409794684 327.4621141523718 891.3075152354246 328.83881822905744Q889.5461438431945 330.2155223057431 886.934455227129 333.79900203476313Q884.3025209628771 337.36223611559666 882.257710496035 340.5812941772587Q880.2129000291931 343.78010659073425 876.0625421509495 350.56239873322977Q871.912184272706 357.34469087572535 869.8066368613044 360.62448588194707Q867.6808438017164 363.90428088816884 864.9071900001585 368.1963583037182Q862.153781846787 372.4884357192676 860.6151125846089 374.8369309089079Q859.0764433224309 377.1651804503616 857.1935980410814 379.9388342519195L857.1935980410814 379.9388342519195Q853.2456966447033 385.3241766695428 851.4235883079135 385.3241766695428Q849.6014799711237 385.3241766695428 846.6861066322598 382.0443816633211Q843.7707332933961 378.76458665709936 843.7707332933961 377.0841978576154Q843.7707332933961 375.4038090581314 844.3578570908061 372.93383997937184Q844.9449808882163 370.4638709006123 845.592841630186 368.115375710972Q846.2609480203422 365.7871261695183 847.6376520970279 361.19136403117056Q849.0346018219001 356.61584754100943 850.8567101586899 350.42067919592387Q852.6788184954797 344.2255108508384 853.6101183120612 333.35359777465897Q854.5616637768293 322.5019303466661 855.0070680369334 317.46076394821415Q855.432226648851 312.4398431979488 857.4770371156932 312.4398431979488L857.4770371156932 312.4398431979488Q860.6960951773552 312.4398431979488 863.8139249980844 315.80062079691675Q866.9520004670004 319.14115274769813 866.9520004670004 322.5019303466661L866.9520004670004 322.5019303466661Q866.9520004670004 335.3174256487547 857.3353175783872 364.7748437601906L857.3353175783872 364.7748437601906Q873.6533100167497 334.1634237021211 877.8846504877393 328.47439656169945Q882.1159909587292 322.78536942127784 885.1730838348989 319.28287228500403L885.1730838348989 319.28287228500403Q890.8621109753204 313.02696699535886 896.692857653048 313.02696699535886L896.692857653048 313.02696699535886Q900.1953547893219 313.02696699535886 905.0745560022814 319.08041580313846Q909.9537572152409 325.11361896273155 909.9537572152409 331.24805036325733Q909.9537572152409 337.36223611559666 908.2126314711971 346.41204085498623L908.2126314711971 346.41204085498623Q925.4011867815815 313.02696699535886 939.4111753266767 313.02696699535886ZM979.7809978106651 292.3156689005142Q979.7809978106651 289.40029556165047 982.1092473521188 286.788606945585Q984.4374968935725 284.156672681333 986.8467290277725 284.156672681333Q989.2559611619723 284.156672681333 992.6167387609404 290.0684019518067Q995.9572707117217 295.95988557409396 995.9572707117217 299.90778697047193L995.9572707117217 299.90778697047193Q995.9572707117217 301.3654736399038 994.6413035795957 302.5194755865374Q993.3455820956564 303.69372318135754 991.8878954262244 303.69372318135754L991.8878954262244 303.69372318135754Q988.3853982899506 303.69372318135754 984.0730752262147 299.46238271036776Q979.7809978106651 295.231042239378 979.7809978106651 292.3156689005142ZM979.0521544759494 313.02696699535886L979.0521544759494 313.02696699535886Q981.8258082775072 313.02696699535886 984.2957773562667 316.36749894614024Q986.7859920832128 319.7282765451082 986.7859920832128 322.92708895858374Q986.7859920832128 326.1461470202458 982.554651612223 342.09971779125027Q978.3233111412334 358.07353421044127 971.9054406660958 377.89402378507754L971.9054406660958 377.89402378507754Q969.4354715873361 385.18245713223695 965.6495353764507 385.18245713223695L965.6495353764507 385.18245713223695Q963.6047249096085 385.18245713223695 962.1470382401768 383.50206833275297Q960.6893515707449 381.821679533269 960.6893515707449 379.7161321218674Q960.6893515707449 377.5903390622792 961.7826165728187 373.0148225721181Q962.8758815748928 368.4190604337703 964.9814289862942 360.76620541925297Q967.1072220458824 353.11335040473557 968.3422065852623 348.2948861363357Q969.5771911246419 343.4966675161225 970.8931582567681 337.44321870834284Q972.209125388894 331.38976990056324 972.9987056681697 327.66457063423735Q973.8085315956317 323.959617016098 974.8208140049595 320.17368080521237L974.8208140049595 320.17368080521237Q976.8656244718014 313.02696699535886 979.0521544759494 313.02696699535886ZM1006.3027969350509 385.6076157441546L1006.3027969350509 385.6076157441546Q1004.4199516537013 385.6076157441546 1002.2334216495534 382.85420759078323Q1000.0468916454057 380.08055378922535 1000.0468916454057 378.3191823969952Q1000.0468916454057 376.57805665295155 1001.5045783148374 371.47615330993995L1001.5045783148374 371.47615330993995Q1008.793011661997 345.2377932601661 1011.4047002780623 334.0217041648152L1011.4047002780623 334.0217041648152Q1005.1487949884173 335.4793908342471 1002.8205454469636 335.4793908342471Q1000.4720502573233 335.4793908342471 998.1438007158696 333.4345803674052Q995.8155511744159 331.38976990056324 995.8155511744159 328.9198008218037Q995.8155511744159 326.42958609485754 1002.3751411868594 324.546740813508L1002.3751411868594 324.546740813508Q1010.8378221288389 322.5019303466661 1014.0366345423143 321.914806549256L1014.0366345423143 321.914806549256Q1015.4943212117463 314.90981227670835 1016.2231645464623 311.1238760658228L1016.2231645464623 311.1238760658228Q1019.7256616827361 291.0199474165748 1025.6981278977696 282.11186221449105Q1031.670594112803 273.2240226605939 1041.8744007988262 273.2240226605939L1041.8744007988262 273.2240226605939Q1049.1628341459855 273.2240226605939 1053.8395788770795 278.99403239376176Q1058.496077959987 284.7437964787431 1058.496077959987 292.53837103056634Q1058.496077959987 300.3329455823896 1054.4064570263026 300.3329455823896L1054.4064570263026 300.3329455823896Q1050.9242055382156 300.3329455823896 1048.7376755340679 292.4776340860067L1048.7376755340679 292.4776340860067Q1048.0088321993517 289.5622607471429 1046.2474608071216 287.07204602019675Q1044.506335063078 284.6020769414372 1042.0161203361317 284.6020769414372Q1039.5461512573725 284.6020769414372 1037.5013407905303 286.84934389014467Q1035.4565303236882 289.1168564870387 1033.8571241169507 293.3481969580285L1033.8571241169507 293.3481969580285Q1029.6257836459608 305.1514098507894 1028.0263774392233 314.90981227670835L1028.0263774392233 314.90981227670835L1026.8723754925895 320.01171561971995Q1032.2577179102127 319.28287228500403 1037.5823233832766 319.28287228500403Q1042.90692885634 319.28287228500403 1045.2959153423535 320.4571198798242Q1047.7051474765535 321.63136747464426 1047.7051474765535 323.3724932186879L1047.7051474765535 323.3724932186879Q1047.7051474765535 326.1461470202458 1042.90692885634 327.6038336896777Q1038.0884645879405 329.0615203591095 1024.0987216910316 331.38976990056324L1024.0987216910316 331.38976990056324Q1013.7531954677025 373.379244239476 1009.9470136086305 381.39652092135134L1009.9470136086305 381.39652092135134Q1007.9224487899752 385.6076157441546 1006.3027969350509 385.6076157441546ZM1107.6120204605663 313.02696699535886Q1109.9605156502066 313.02696699535886 1112.6531868590182 316.4484815388865Q1115.3458580678302 319.8699960824141 1115.3458580678302 324.1013365534038L1115.3458580678302 324.1013365534038Q1115.3458580678302 327.0167098922676 1109.3733918527964 343.9218261280401Q1103.400925637763 360.8269423638126 1101.275132578175 366.88039117159224Q1099.1695851667737 372.93383997937184 1095.5861054377533 382.9149445353429Q1092.02287135692 392.89604909131396 1088.6620937579519 402.37101244262124L1088.6620937579519 402.37101244262124Q1081.3736604107926 423.2240300747717 1066.796793716474 423.2240300747717L1066.796793716474 423.2240300747717Q1058.496077959987 423.2240300747717 1050.9242055382156 418.20310932450633Q1043.3320874682577 413.1619429260544 1043.3320874682577 407.7766005084311L1043.3320874682577 407.7766005084311Q1043.3320874682577 405.73179004158914 1045.154195805048 403.2618209628296Q1046.9763041418373 400.77160623588344 1048.2922712739637 400.77160623588344Q1049.6082384060896 400.77160623588344 1052.523611744953 403.9906642975455L1052.523611744953 403.9906642975455Q1060.9660470387462 413.6073471861586 1066.9587589019661 413.6073471861586L1066.9587589019661 413.6073471861586Q1071.473538447568 413.6073471861586 1075.1177551211476 405.65080744884295Q1078.7619717947273 397.7145133597138 1082.041766800949 387.73340880374275Q1085.3215618071704 377.7523042477717 1085.6859834745287 376.7197761902574Q1086.0504051418866 375.7074937809297 1086.5565463465505 374.1080875741919Q1087.0626875512144 372.4884357192676 1087.5080918113185 371.1927142353282L1087.5080918113185 371.1927142353282Q1077.1625655879893 385.3241766695428 1067.1004784392721 385.3241766695428L1067.1004784392721 385.3241766695428Q1060.9660470387462 385.3241766695428 1055.8034067511749 379.6351495291212Q1050.6205208154174 373.9461223886995 1050.6205208154174 366.2325304296225Q1050.6205208154174 358.4986928223589 1054.4064570263026 345.379512797472Q1058.2126388853749 332.26033277258506 1063.3145422283865 322.643649883972Q1068.416445571398 313.02696699535886 1071.6152579848736 313.02696699535886L1071.6152579848736 313.02696699535886Q1074.2471922491259 313.02696699535886 1076.4944591978333 315.43619912955876Q1078.7619717947273 317.82518561557214 1078.7619717947273 320.3154003425183Q1078.7619717947273 322.78536942127784 1074.9760355838416 330.6609265658473L1074.9760355838416 330.6609265658473Q1063.1525770428943 354.8544761487792 1063.1525770428943 368.27734089646447L1063.1525770428943 368.27734089646447Q1063.1525770428943 370.6055904379181 1064.6102637123258 372.1240140519097Q1066.0679503817578 373.66268331408776 1068.1127608486 373.66268331408776L1068.1127608486 373.66268331408776Q1073.356383728917 373.66268331408776 1080.6448170760768 364.32943950008644Q1087.9332504232361 354.9961956860851 1094.0676818237616 342.18070038399645L1094.0676818237616 342.18070038399645Q1099.1695851667737 331.38976990056324 1104.6966471217029 314.6263732020966L1104.6966471217029 314.6263732020966Q1105.2837709191126 313.02696699535886 1107.6120204605663 313.02696699535886Z " fill="#219ebc" transform="matrix(0.7845100132283915,0,0,0.7845100132283915,0,26.814772256142504)"/></g></svg>